<svg width="64" height="64" viewBox="0 0 64 64" xmlns="http://www.w3.org/2000/svg"><title>Brand</title><g fill="none" fill-rule="evenodd"><path d="M32 64c17.625 0 32-14.375 32-32S49.625 0 32 0 0 14.375 0 32s14.375 32 32 32" fill="#E6E6E6"/><path d="M33.488 32.797c.022 1.002-.196 2.245-.308 2.424-.562.898-4.116 1.305-5.025 1.142-.743-.134-2.29-.07-2.005-1.238.13-.532 2.093-.024 3.084-.565.34-.187 1.652-.575 2.185-1.552.9-1.65 2.014-2.76 2.068-.21zM50.42 20.902c-.902-.95-2.097.2-1.902 1.392.136.827-.18 1.516-.76 2.06-.362.338-3.034.15-3.51.48-1.122.78.485 2.035 1.078 2.726.782.91.438 1.928.466 3.15.008.363-.074 1.143-.074 1.645 0 .872.022.727.6 1.437.573.707 2.742 1.553 3.624 1.525 1.18-.038 1.618.728 1.838-.98.15-1.167-.205-3.208.894-3.877.164-.1.46-.362.786-.556.275-.164 1.85-1.172 1.834-1.505-.023-.45-.118-.626-.527-.955-.343-.276-1.065-.07-1.723-1.155-.298-.49-.786-1.033-1.035-1.56-.227-.482-.48-.952-.764-1.386-.065-.1-.672-1.803-.68-1.992-.003-.058-.097-.397-.146-.45zM16.742 18.79c-.348-.305-2.034-.29-2.565.118-2.21 1.694-.78 1.52-1.825 3.187-.315.5-.066.625-.823 1.338-.88.827-.092.327-1.205 1.022-.226.14-3.003 2.648-3.107 2.915-.582 1.504 1.7 2.523 2.787 2.82.893.245 1.627 1.078 1.607 2.066-.01.525 1.054 3.912 1.43 4.38 1.05 1.308 2.118-.33 2.314-1.577.187-1.185.99-5.053 1.73-5.927.242-.284 1.73-2.767 2.308-2.815 1.023-.085 1.95-2.07.653-2.438-1.74-.497-3.33-3.05-3.162-4.84.014-.152.006-.12-.143-.25zm18.143 9.028c-2.87-2.492-4.12 4.205-6.516 4.472-1.405.156-1.896.126-3.197.71-.986.44-2.89.51-2.45 2.04.432 1.504 2.973 1.596 2.973 4.5 0 1.61.205 1.703-.288 3.347-.146.487-.032.948-.348 1.727-.322.793-.34 3.875 1.98 1.803 2.676-2.392 6.254-7.023 7.09-6.608.778.385 6.148 7.772 6.148 4.84 0-2.013-4.344-16.275-5.263-16.675l-.13-.157z" fill="#FFF"/><path d="M37.46 31.468l-3.535-5.896a.782.782 0 0 0-.28-.28.768.768 0 0 0-.385-.096.765.765 0 0 0-.384.096.774.774 0 0 0-.28.28l-3.536 5.896c-.115.192-.26.35-.428.474-.17.123-.363.21-.58.26l-6.702 1.54a.774.774 0 0 0-.353.18.79.79 0 0 0-.21.336.78.78 0 0 0-.027.395.778.778 0 0 0 .18.352l4.516 5.185a1.567 1.567 0 0 1 .387 1.144v.04l-.607 6.85a.764.764 0 0 0 .063.394.77.77 0 0 0 .25.3c.116.086.24.136.368.15a.785.785 0 0 0 .392-.06l6.327-2.695a1.59 1.59 0 0 1 .623-.13c.21 0 .417.044.623.13l6.327 2.694c.13.055.264.075.393.06a.77.77 0 0 0 .366-.148.78.78 0 0 0 .245-.288l.006-.014a.773.773 0 0 0 .064-.394l-.606-6.848a1.57 1.57 0 0 1 .386-1.185l4.515-5.186a.766.766 0 0 0 .18-.352.79.79 0 0 0-.027-.395.79.79 0 0 0-.21-.337.784.784 0 0 0-.353-.178l-6.7-1.54a1.574 1.574 0 0 1-.582-.26 1.574 1.574 0 0 1-.428-.474zM18.73 36.65l-3.597 2.886a.65.65 0 0 1-.304.14.672.672 0 0 1-.335-.037.66.66 0 0 1-.276-.19.643.643 0 0 1-.14-.303l-1.143-6.075a1.455 1.455 0 0 0-.64-.96l-5.17-3.387a.674.674 0 0 1-.227-.245.66.66 0 0 1-.068-.33.647.647 0 0 1 .095-.32c.056-.09.14-.17.245-.227l5.423-2.965a1.46 1.46 0 0 0 .452-.377c.12-.152.21-.328.263-.526l1.626-5.963.006-.026a.646.646 0 0 1 .156-.264.657.657 0 0 1 .29-.168.66.66 0 0 1 .336-.01c.105.027.205.082.293.166l4.495 4.24c.15.144.316.248.5.316.18.066.374.095.58.085l6.173-.3a.653.653 0 0 1 .33.068.65.65 0 0 1 .248.224.65.65 0 0 1 .11.314.662.662 0 0 1-.064.33l-2.647 5.587a1.475 1.475 0 0 0-.143.57c-.008.195.025.39.097.58l.365.962a.408.408 0 0 0 .764-.288l-.365-.962a.666.666 0 0 1-.045-.26.672.672 0 0 1 .067-.255l2.645-5.585c.113-.238.16-.49.142-.735-.02-.248-.102-.49-.25-.712a1.46 1.46 0 0 0-.558-.5 1.46 1.46 0 0 0-.735-.15l-6.174.296a.642.642 0 0 1-.482-.178l-4.493-4.244a1.476 1.476 0 0 0-.657-.36 1.474 1.474 0 0 0-.75.014c-.255.072-.475.2-.65.378a1.462 1.462 0 0 0-.36.613c-.006.012-.01.026-.014.04l-1.624 5.963a.662.662 0 0 1-.114.236.648.648 0 0 1-.203.166l-5.423 2.965a1.463 1.463 0 0 0-.55.514c-.13.212-.205.456-.216.72-.01.262.045.512.16.733.113.22.284.412.504.556l5.17 3.387c.078.052.14.113.187.183l.002-.002v.002a.64.64 0 0 1 .094.242l1.143 6.075c.05.26.158.49.32.68.16.19.37.338.617.43.246.09.5.115.746.075.245-.04.48-.145.685-.31l3.596-2.886a.407.407 0 0 0-.512-.636zm29.115-1.136a.41.41 0 0 1 .435-.69l2.385 1.504a.54.54 0 0 0 .263.086h.002a.544.544 0 0 0 .267-.063.538.538 0 0 0 .208-.178.544.544 0 0 0 .086-.264l.395-5.494a1.345 1.345 0 0 1 .485-.944l4.233-3.524a.528.528 0 0 0 .187-.498.534.534 0 0 0-.107-.256.543.543 0 0 0-.223-.16l-5.103-2.073a1.363 1.363 0 0 1-.453-.3 1.347 1.347 0 0 1-.296-.454l-2.044-5.114-.007-.017a.527.527 0 0 0-.155-.21.537.537 0 0 0-.252-.106.538.538 0 0 0-.276.02v.002a.55.55 0 0 0-.225.16l-3.55 4.213a1.33 1.33 0 0 1-.947.482L37.657 22a.53.53 0 0 0-.26.084h-.002v.002a.542.542 0 0 0-.18.205.545.545 0 0 0-.063.27.533.533 0 0 0 .085.264l2.91 4.675a1.335 1.335 0 0 1 .164 1.048l-.377 1.49a.41.41 0 0 1-.793-.198l.377-1.49a.545.545 0 0 0 .014-.218.54.54 0 0 0-.078-.2l-2.91-4.677a1.343 1.343 0 0 1-.055-1.334c.11-.218.268-.394.46-.52v.003c.19-.127.415-.202.656-.218l5.496-.363a.533.533 0 0 0 .376-.19l3.548-4.213c.16-.19.35-.326.564-.405v.002c.215-.08.45-.102.687-.064.242.04.457.134.636.277.17.137.307.32.398.534l.01.024 2.046 5.113c.03.075.068.136.117.184a.534.534 0 0 0 .18.117l5.104 2.073a1.348 1.348 0 0 1 .83 1.05c.037.24.012.474-.068.688-.082.214-.22.405-.406.56l-4.232 3.526a.52.52 0 0 0-.192.376l-.394 5.495a1.35 1.35 0 0 1-.22.654 1.355 1.355 0 0 1-.52.46c-.216.108-.445.157-.672.148h-.005a1.355 1.355 0 0 1-.66-.212l-2.385-1.502zm-13.22-10.362a1.586 1.586 0 0 0-.578-.57 1.59 1.59 0 0 0-.787-.204c-.284 0-.55.072-.786.204a1.58 1.58 0 0 0-.58.57L28.36 31.05a.756.756 0 0 1-.49.355l-6.702 1.54a1.58 1.58 0 0 0-.72.376c-.2.182-.35.416-.438.685a1.59 1.59 0 0 0-.05.81c.055.266.177.514.363.727l4.516 5.185a.788.788 0 0 1 .156.27c.028.086.04.18.034.278l-.004.03-.605 6.85c-.024.282.022.553.133.798.112.245.288.46.518.628.232.17.49.27.758.3.266.03.54-.01.802-.123l6.327-2.69A.77.77 0 0 1 33.26 47c.1 0 .203.023.303.066l6.327 2.69c.263.114.536.154.802.123.268-.032.526-.132.756-.3.223-.16.394-.366.505-.6l.013-.026c.112-.245.158-.517.133-.8l-.607-6.85a.8.8 0 0 1 .03-.31.788.788 0 0 1 .158-.267l4.516-5.184a1.58 1.58 0 0 0 .363-.727 1.58 1.58 0 0 0-.05-.81 1.586 1.586 0 0 0-.437-.685 1.58 1.58 0 0 0-.72-.373l-6.702-1.542a.773.773 0 0 1-.283-.126.77.77 0 0 1-.207-.23l-3.535-5.898zm-4.658 20.225a.412.412 0 0 1-.158-.81c.635-.124 1.27-.462 1.852-.903a7.975 7.975 0 0 0 1.74-1.852.41.41 0 0 1 .682.458 8.794 8.794 0 0 1-1.924 2.047c-.676.514-1.428.908-2.193 1.06zm-18.86-17.442a.412.412 0 0 1-.58-.583c.554-.553 1.298-.957 2.098-1.232a8.78 8.78 0 0 1 2.774-.46.413.413 0 0 1 0 .825c-.782 0-1.682.13-2.508.415-.692.237-1.328.58-1.785 1.036z" fill="#FF458F"/></g></svg>