<svg width="64" height="64" viewBox="0 0 64 64" xmlns="http://www.w3.org/2000/svg"><title>scent</title><g fill="none" fill-rule="evenodd"><path d="M32 64c17.625 0 32-14.375 32-32S49.625 0 32 0 0 14.375 0 32s14.375 32 32 32" fill="#E6E6E6"/><path d="M32.242 14.16c-.286 3.68 2.178 3.067 3.643 1.02 3.15-4.405 6.787-1.225 5.564-6.215-.91-3.713-8.54-3.414-9.208 5.194M30.25 51.587c1.263-3.417 3.955-17.138-.94-6.217-.977 2.18-.936 4.032-.827 5.724.126 1.983 1.328 1.68 1.766.494m-2.136-25.025c6.925 7.448 11.327-3.548 9.815 7.385-.862 6.232-2.863 12.716-6.248 17.838-2.873 4.346-9.593 5.496-7.542-2.242.62-2.336 3.08-23.942 3.974-22.98" fill="#FFF"/><path d="M38.647 24.887l-8.63-2.287 1.244-4.69 5.883 1.56a.412.412 0 0 0 .502-.29.412.412 0 0 0-.293-.503l-6.268-1.662-.01-.003-.01-.003-.633-.168 2.87-10.82 11.216 2.973-2.867 10.82-.635-.168-.01-.002-.01-.003-.01-.002-.01-.002-.01-.002-.01-.002h-.012l-.01-.002H40.873l-.01.002h-.01l-.01.002-.01.002h-.01l-.01.003-.02.005-.008.003-.01.003v.002l-.01.002a.435.435 0 0 0-.096.05l-.017.01a.412.412 0 0 0-.15.223l-1.347 5.085-.486-.128-.002-.002-.01-.002-.01-.003zm-.08-16.052a1.645 1.645 0 0 1 .396 3.008l-.03.015a1.64 1.64 0 0 1-1.26.14 1.64 1.64 0 0 1-1.114-2.04 1.64 1.64 0 0 1 1.997-1.126l.01.002zm.28 1.172a.82.82 0 0 1-.298 1.124l-.02.013a.82.82 0 0 1-.603.072h-.002a.822.822 0 0 1-.498-.38v-.002a.817.817 0 0 1 .296-1.123.823.823 0 0 1 .627-.084c.22.06.394.2.5.382zm2.345 10.537l.644.17a.41.41 0 0 0 .502-.29l3.078-11.615a.412.412 0 0 0-.293-.504l-12.01-3.182a.41.41 0 0 0-.503.292l-3.078 11.613a.41.41 0 0 0 .292.502l.643.17-1.348 5.085a.41.41 0 0 0 .29.503l8.64 2.288-8.745 33-7.35-1.95 7.87-29.681a.41.41 0 0 0-.796-.21l-7.973 30.08a.41.41 0 0 0 .293.5l8.142 2.158a.41.41 0 0 0 .502-.29l8.85-33.396.5.132a.41.41 0 0 0 .5-.294l1.348-5.084zm-6.23 6.607a.41.41 0 1 1 .668.48c-.19.267-.525.486-.943.632-.37.127-.82.2-1.307.198a4.014 4.014 0 0 1-1.304-.21c-.42-.146-.75-.37-.942-.634a.41.41 0 1 1 .67-.48c.09.13.284.247.545.338.29.102.648.163 1.036.166.384 0 .74-.058 1.032-.16.262-.088.455-.204.545-.33v.002z" fill="#FF458F"/></g></svg>