<svg width="64" height="64" viewBox="0 0 64 64" xmlns="http://www.w3.org/2000/svg"><title>Chic</title><g fill="none" fill-rule="evenodd"><path d="M32 64c17.625 0 32-14.375 32-32S49.625 0 32 0 0 14.375 0 32s14.375 32 32 32" fill="#E6E6E6"/><path d="M20.514 26.064c0-2.4.836-2.702 2.16-3.24 4.896-1.99 2.353.142.413 2.654-.703.91-1.04 2.057-2.126 2.315-.583.14-.446-1.363-.446-1.73m16.764 12.978c-.09.355-.598 1.776.002 1.788 1.117.02 1.73-1.008 2.636-1.713 2.505-1.95 5.5-3.38.26-2.673-1.415.19-2.3.275-2.898 2.6m1.993 7.32c-5.44 5.274-16.294 6.744-21.813.423-7.2-8.245 6.01 7.287 16.84-4.848.82-.918-3.672-6.61-1.28-7.536.67-.26 2.52-.47 3.237-.494 2.86-.094 4.766-.132 7.65-.714 9.577-1.935 1.82 12.032.544 11.735-2.592-.603-3.218-.464-5.177 1.436M23.74 18.55c-1.728 1.898-2.28 2.038-4.568 1.435-1.125-.297-7.97 13.67.48 11.735 2.544-.582 4.225-.62 6.75-.713.633-.024 2.263-.236 2.855-.496 2.11-.925-1.135-4.557-.413-5.475 4.607-5.85 12.85-7.166 17.31-4.972 3.358 1.653 3.064-.81-1.892-3.693-4.518-2.628-14.07-4.908-20.522 2.18" fill="#FFF"/><path d="M36.17 17.327c-1.462.104-2.906.35-4.218.736-1.254.37-2.39.865-3.312 1.485a.41.41 0 1 0 .457.683c.85-.57 1.91-1.03 3.087-1.377 1.254-.368 2.638-.604 4.044-.705a.41.41 0 1 0-.06-.82m17.062 8.8a.41.41 0 1 1-.746.332 20.59 20.59 0 0 0-.617-1.26l-.01-.022a19.073 19.073 0 0 0-1.225-2.007c-2.856-4.097-6.964-6.508-11.546-7.154-4.602-.65-9.688.475-14.477 3.454-.41.254-.82.525-1.23.81a.41.41 0 0 1-.547-.073l-1.947-2.074-2.75 12.466 12.878-1.176-1.88-2.047a.41.41 0 0 1 .067-.614c.47-.362.948-.693 1.44-.993 3.608-2.208 7.966-2.876 12.14-2.068 4.17.807 8.16 3.088 11.035 6.78.438.56.848 1.15 1.227 1.77a.41.41 0 0 1-.136.563.41.41 0 0 1-.563-.136 18.583 18.583 0 0 0-1.17-1.696 17.597 17.597 0 0 0-10.547-6.48c-3.98-.77-8.13-.135-11.56 1.963-.35.215-.694.444-1.026.687l2.135 2.325h-.002a.408.408 0 0 1-.263.683l-14.248 1.3a.41.41 0 0 1-.444-.494l3.032-13.75a.407.407 0 0 1 .7-.21l2.253 2.4c.32-.218.646-.43.974-.633 4.957-3.083 10.234-4.245 15.022-3.57 4.805.678 9.112 3.205 12.103 7.496a21.538 21.538 0 0 1 1.276 2.092l.01.02c.22.414.432.85.64 1.312m-20.282 12.97c-3.742 1.85-8.16 2.11-12.24.844-3.886-1.204-7.463-3.793-9.856-7.706a.41.41 0 0 0-.752.282h-.002c.66 3.862 1.986 7.1 3.793 9.693 2.116 3.033 4.89 5.186 8.034 6.427 3.14 1.24 6.645 1.567 10.227.954 3.29-.56 6.645-1.917 9.84-4.086l2.253 2.4a.41.41 0 0 0 .7-.21l3.032-13.75a.407.407 0 0 0-.444-.494l-14.245 1.3a.408.408 0 0 0-.264.683l2.44 2.656a.408.408 0 1 0 .6-.554l-1.88-2.048 12.877-1.175L44.31 46.78l-1.95-2.075a.41.41 0 0 0-.547-.074c-3.18 2.218-6.527 3.595-9.8 4.154-3.434.588-6.79.275-9.791-.91-2.995-1.18-5.64-3.235-7.66-6.133-1.425-2.045-2.54-4.513-3.247-7.392a18.425 18.425 0 0 0 9.153 6.374c4.274 1.325 8.91 1.05 12.841-.892a.41.41 0 0 0-.362-.733m-.4 7.992a.412.412 0 1 1-.178-.806c.84-.185 1.634-.42 2.352-.706a9.788 9.788 0 0 0 1.86-.96.41.41 0 1 1 .46.684c-.592.397-1.273.744-2.017 1.04a16.27 16.27 0 0 1-2.478.747" fill="#FF458F"/></g></svg>